Coordinates
version=1
nRows=16
nColumns=42
inDegrees=yes

Units are S.I. units (second, meters, Newtons, ...)
If the header above contains a line with 'inDegrees', this indicates whether rotational values are in degrees (yes) or radians (no).

endheader
time	pelvis_tilt	pelvis_list	pelvis_rotation	pelvis_tx	pelvis_ty	pelvis_tz	hip_flexion_r	hip_adduction_r	hip_rotation_r	knee_angle_r	knee_adduction_r	knee_angle_r_beta	ankle_angle_r	subtalar_angle_r	mtp_angle_r	hip_flexion_l	hip_adduction_l	hip_rotation_l	knee_angle_l	knee_adduction_l	knee_angle_l_beta	ankle_angle_l	subtalar_angle_l	mtp_angle_l	lumbar_extension	lumbar_bending	lumbar_rotation	arm_flex_r	arm_add_r	arm_rot_r	elbow_flex_r	pro_sup_r	wrist_flex_r	wrist_dev_r	arm_flex_l	arm_add_l	arm_rot_l	elbow_flex_l	pro_sup_l	wrist_flex_l	wrist_dev_l
      1.75000000	     14.38728787	      4.91533125	      2.68413147	      0.21745228	      0.94218014	     -0.24073531	    -16.41272935	      4.18251495	    -16.93494178	      8.11490394	     -3.68170836	      0.14163179	     18.17264881	     12.33366214	     -7.53987087	      8.69457243	      4.34066643	     -9.03747334	     46.68353969	     -3.77485966	      0.81478147	     16.05086802	     -1.23621749	     -7.53987087	    -44.06885623	     -2.68981148	      1.26795512	      5.01850775	    -11.38931201	      4.32508805	     41.24308780	     90.00000001	      0.00000000	      0.00000000	     -2.96048942	    -10.49801020	     14.88183572	     47.27024124	     90.00000001	      0.00000000	      0.00000000
      1.76000000	     14.30639106	      4.91864150	      2.81456711	      0.22286793	      0.94189465	     -0.24077829	    -17.14353786	      4.30002204	    -17.17190104	      7.26276256	     -3.59979840	      0.12675912	     18.10191659	     12.87212856	     -7.53894566	      9.31923580	      4.65422845	     -9.13572706	     44.68739872	     -3.87684702	      0.77994224	     15.73192172	     -0.45028246	     -7.53894566	    -44.05748572	     -2.68661169	      1.25273714	      5.02775008	    -11.45104439	      4.42096132	     41.37235004	     90.00000001	      0.00000000	      0.00000000	     -2.99179092	    -10.41940151	     14.73708892	     47.26959027	     90.00000001	      0.00000000	      0.00000000
      1.77000000	     14.10430940	      4.82447376	      3.01885418	      0.22817877	      0.94122042	     -0.24085488	    -17.66394701	      4.58762150	    -17.43931441	      6.51880233	     -3.64014356	      0.11377456	     18.09989783	     13.25431521	     -7.53838278	     10.11296048	      4.88053640	     -9.16257635	     42.74068834	     -4.01207676	      0.74596574	     15.36287637	      0.13118228	     -7.53838278	    -43.90910700	     -2.57903719	      1.25216413	      5.04799753	    -11.50305055	      4.49421907	     41.47804404	     90.00000001	      0.00000000	      0.00000000	     -3.04433870	    -10.35855154	     14.65113195	     47.20968696	     90.00000001	      0.00000000	      0.00000000
      1.78000000	     14.14727321	      4.88018607	      3.11580697	      0.23367893	      0.94109814	     -0.24102216	    -18.66783189	      4.57895772	    -17.51876812	      5.47083410	     -3.33845842	      0.09548407	     17.85733860	     13.98243456	     -7.53779390	     10.36666895	      5.30864866	     -9.34644018	     40.33601171	     -4.19158715	      0.70399621	     14.81524558	      1.05347006	     -7.53779390	    -44.04631497	     -2.62818000	      1.19431109	      5.08764430	    -11.54862828	      4.60378874	     41.59186783	     90.00000001	      0.00000000	      0.00000000	     -3.08278035	    -10.27039994	     14.51738687	     47.20486556	     90.00000001	      0.00000000	      0.00000000
      1.79000000	     14.21361774	      4.92003231	      3.17632735	      0.23932519	      0.94086496	     -0.24113966	    -19.63247488	      4.54410312	    -17.68835325	      4.60741814	     -3.00973228	      0.08041462	     17.65495257	     14.51250198	     -7.53680075	     10.52554546	      5.68481332	     -9.90783472	     37.81993241	     -4.52510636	      0.66008234	     14.36015938	      2.22247244	     -7.53680075	    -44.18253707	     -2.68707304	      1.16318929	      5.07655691	    -11.61118980	      4.74519839	     41.76167272	     90.00000001	      0.00000000	      0.00000000	     -3.21393570	    -10.23455842	     14.39699651	     47.31918042	     90.00000001	      0.00000000	      0.00000000
      1.80000000	     14.06156466	      4.84692723	      3.38625577	      0.24470970	      0.94006948	     -0.24143713	    -20.28465269	      4.75480578	    -17.85971179	      3.77179997	     -2.89625056	      0.06583033	     17.62041921	     14.99079094	     -7.53622030	     11.03058770	      5.97903824	    -10.18598899	     35.50266176	     -4.79930526	      0.61963834	     13.87369763	      3.13545588	     -7.53622030	    -44.09960964	     -2.58738999	      1.13078437	      5.10055966	    -11.65724420	      4.85421156	     41.81841762	     90.00000001	      0.00000000	      0.00000000	     -3.24027115	    -10.15841155	     14.36167951	     47.24043685	     90.00000001	      0.00000000	      0.00000000
      1.81000000	     14.09192173	      4.85972914	      3.48133590	      0.25032281	      0.93952920	     -0.24170086	    -21.11354300	      4.74120475	    -18.20686612	      3.10099502	     -2.58556709	      0.05412257	     17.59661433	     15.48552368	     -7.53473710	     11.16384534	      6.35873717	    -11.06390390	     32.89711869	     -5.31176551	      0.57416304	     13.54774960	      4.77340041	     -7.53473710	    -44.20190922	     -2.60530806	      1.08699239	      5.10104806	    -11.72303772	      5.01506144	     41.99184590	     90.00000001	      0.00000000	      0.00000000	     -3.36079697	    -10.15223207	     14.29683493	     47.37515856	     90.00000001	      0.00000000	      0.00000000
      1.82000000	     13.82789467	      4.63816110	      3.80737698	      0.25559953	      0.93823259	     -0.24225928	    -21.52030080	      5.16888522	    -18.40056148	      2.47646009	     -2.59678846	      0.04322238	     17.68265361	     15.87474453	     -7.53436288	     11.81759198	      6.49285166	    -11.44306124	     30.72274210	     -5.61454609	      0.53621300	     13.19982506	      5.51756729	     -7.53436288	    -43.99757238	     -2.30619449	      1.04619499	      5.11917378	    -11.77785042	      5.08442588	     41.99116625	     90.00000001	      0.00000000	      0.00000000	     -3.39980726	    -10.08660221	     14.30839403	     47.26625238	     90.00000001	      0.00000000	      0.00000000
      1.83000000	     13.94351298	      4.71001336	      3.89503606	      0.26144939	      0.93762036	     -0.24269760	    -22.39412564	      4.99291620	    -19.00824679	      2.01270077	     -2.13841767	      0.03512826	     17.82227135	     16.55898558	     -7.53331477	     11.68954098	      6.89887973	    -12.67147783	     27.98262505	     -6.07850171	      0.48838894	     12.94968091	      7.69021172	     -7.53331477	    -44.16110043	     -2.36604408	      0.94104266	      5.10703131	    -11.79324976	      5.23585849	     42.11505326	     90.00000001	      0.00000000	      0.00000000	     -3.53883065	    -10.09344335	     14.27899770	     47.37040156	     90.00000001	      0.00000000	      0.00000000
      1.84000000	     13.92843086	      4.60527596	      4.07052484	      0.26720885	      0.93654551	     -0.24315576	    -23.02163234	      5.07507462	    -19.79097179	      1.65948240	     -1.79841786	      0.02896343	     18.17468418	     17.48500064	     -7.53207794	     11.87290040	      7.07176897	    -14.11154201	     25.62374250	     -6.59580217	      0.44721867	     12.94238510	     10.18128266	     -7.53207794	    -44.17688587	     -2.25002838	      0.93475691	      5.08878499	    -11.82858316	      5.36705753	     42.14696156	     90.00000001	      0.00000000	      0.00000000	     -3.63107700	    -10.06795908	     14.30640551	     47.41391141	     90.00000001	      0.00000000	      0.00000000
      1.85000000	     13.70122135	      4.34096252	      4.36326229	      0.27271070	      0.93482145	     -0.24374992	    -23.23374069	      5.42014174	    -20.53417349	      1.55235153	     -1.71706829	      0.02709365	     18.64453178	     18.55687941	     -7.53016369	     12.55085512	      6.97300377	    -15.83898263	     23.81332792	     -7.02984990	      0.41562098	     13.17330766	     13.15631194	     -7.53016369	    -43.97722528	     -1.93932319	      0.88383531	      5.10103500	    -11.89158805	      5.47062249	     42.20556566	     90.00000001	      0.00000000	      0.00000000	     -3.74507897	    -10.05011195	     14.37769055	     47.41409171	     90.00000001	      0.00000000	      0.00000000
      1.86000000	     13.57311784	      4.17281655	      4.64798241	      0.27829295	      0.93330813	     -0.24445516	    -23.64598470	      5.65328106	    -20.94330385	      1.34827142	     -1.52684723	      0.02353178	     18.98846209	     18.85170591	     -7.52949006	     12.86584945	      7.07440088	    -17.17929699	     21.75370614	     -7.29402082	      0.37967380	     13.14217898	     15.34911543	     -7.52949006	    -43.88016369	     -1.71365083	      0.78727003	      5.13997703	    -11.89046345	      5.54047947	     42.13335897	     90.00000001	      0.00000000	      0.00000000	     -3.81036183	    -10.04188873	     14.45636346	     47.35743612	     90.00000001	      0.00000000	      0.00000000
      1.87000000	     13.48998230	      3.94529366	      4.88252797	      0.28414765	      0.93161175	     -0.24500750	    -24.06012597	      5.93561558	    -21.54119822	      1.22875489	     -1.34805862	      0.02144582	     19.40252980	     19.48660070	     -7.52837142	     13.40324123	      6.89154129	    -19.82060242	     20.32605772	     -7.75731916	      0.35475663	     13.60657780	     19.42550675	     -7.52837142	    -43.80197165	     -1.47918345	      0.71342604	      5.14791384	    -11.88131039	      5.61999999	     42.18076832	     90.00000001	      0.00000000	      0.00000000	     -3.98163350	    -10.06769543	     14.58497548	     47.42172783	     90.00000001	      0.00000000	      0.00000000
      1.88000000	     13.27528227	      3.54560219	      5.15554849	      0.28998291	      0.92942280	     -0.24550060	    -24.22420830	      6.49802328	    -21.91628229	      1.22075450	     -1.41726324	      0.02130619	     19.83934963	     19.97443836	     -7.52655537	     14.30842820	      6.37971887	    -22.83224830	     19.52755492	     -8.16144412	      0.34082013	     14.25644600	     23.93777313	     -7.52655537	    -43.53887912	     -1.09845816	      0.80235881	      5.07827372	    -11.91186919	      5.68359251	     42.14247710	     90.00000001	      0.00000000	      0.00000000	     -4.10071941	    -10.05759913	     14.70939226	     47.45487758	     90.00000001	      0.00000000	      0.00000000
      1.89000000	     13.15383672	      3.26486214	      5.41743449	      0.29588062	      0.92745428	     -0.24603694	    -24.53933412	      6.92469921	    -22.06827688	      1.16951361	     -1.40444579	      0.02041186	     20.20492174	     19.99606111	     -7.52525412	     14.90214703	      6.04752390	    -25.47697648	     18.62842811	     -8.41358407	      0.32512740	     14.58268572	     27.82171213	     -7.52525412	    -43.39512348	     -0.82329366	      0.74545039	      5.08572151	    -11.86804299	      5.70601093	     42.08274885	     90.00000001	      0.00000000	      0.00000000	     -4.23872780	    -10.09758573	     14.89175206	     47.46918675	     90.00000001	      0.00000000	      0.00000000
      1.90000000	     12.99635719	      2.95332638	      5.69595445	      0.30184682	      0.92534657	     -0.24663728	    -24.79226129	      7.42260207	    -22.05053314	      1.14062335	     -1.47506476	      0.01990763	     20.64376470	     19.81171178	     -7.52430200	     15.54613244	      5.65909395	    -27.97923740	     18.05889671	     -8.60568073	      0.31518721	     14.85257092	     31.51113190	     -7.52430200	    -43.20512130	     -0.52611780	      0.69540388	      5.10337106	    -11.81354801	      5.72348709	     41.91366741	     90.00000001	      0.00000000	      0.00000000	     -4.34725861	    -10.14283195	     15.12414535	     47.42619863	     90.00000001	      0.00000000	      0.00000000
